<svg width="16" height="13" viewBox="0 0 16 13" fill="none" xmlns="http://www.w3.org/2000/svg">
<path d="M16 4.92308V9.4359C15.9996 9.76221 15.8699 10.0751 15.6391 10.3058C15.4084 10.5365 15.0955 10.6663 14.7692 10.6667H14.359V12.3077C14.3589 12.3857 14.3367 12.462 14.2948 12.5278C14.253 12.5936 14.1932 12.6461 14.1226 12.6792C14.052 12.7123 13.9734 12.7246 13.8961 12.7146C13.8188 12.7047 13.7458 12.6729 13.6859 12.623L11.3385 10.6667H7.38462C7.05831 10.6663 6.74546 10.5365 6.51473 10.3058C6.28399 10.0751 6.1542 9.76221 6.15385 9.4359V9.02564H10.2564C10.8002 9.025 11.3216 8.80868 11.7062 8.42413C12.0907 8.03958 12.3071 7.5182 12.3077 6.97436V3.69231H14.7692C15.0955 3.69267 15.4084 3.82245 15.6391 4.05319C15.8699 4.28392 15.9996 4.59677 16 4.92308ZM10.2564 8.20513H4.70154L2.36258 10.9333C2.30803 10.9969 2.23534 11.0422 2.15426 11.0632C2.07319 11.0843 1.98763 11.08 1.90906 11.0509C1.8305 11.0219 1.76271 10.9695 1.71479 10.9008C1.66688 10.8321 1.64114 10.7504 1.64103 10.6667V8.20513H1.23077C0.904459 8.20477 0.591616 8.07498 0.36088 7.84425C0.130143 7.61351 0.00035835 7.30067 0 6.97436V1.23077C0.00035835 0.904459 0.130143 0.591616 0.36088 0.36088C0.591616 0.130143 0.904459 0.00035835 1.23077 0H10.2564C10.5827 0.00035835 10.8956 0.130143 11.1263 0.36088C11.357 0.591616 11.4868 0.904459 11.4872 1.23077V6.97436C11.4868 7.30067 11.357 7.61351 11.1263 7.84425C10.8956 8.07498 10.5827 8.20477 10.2564 8.20513ZM9.02564 4.92308C9.02564 4.81427 8.98242 4.70992 8.90548 4.63298C8.82854 4.55604 8.72419 4.51282 8.61539 4.51282H2.87179C2.76299 4.51282 2.65864 4.55604 2.5817 4.63298C2.50476 4.70992 2.46154 4.81427 2.46154 4.92308C2.46154 5.03188 2.50476 5.13623 2.5817 5.21317C2.65864 5.29011 2.76299 5.33333 2.87179 5.33333H8.61539C8.72419 5.33333 8.82854 5.29011 8.90548 5.21317C8.98242 5.13623 9.02564 5.03188 9.02564 4.92308ZM9.02564 2.87179C9.02564 2.76299 8.98242 2.65864 8.90548 2.5817C8.82854 2.50476 8.72419 2.46154 8.61539 2.46154H2.87179C2.76299 2.46154 2.65864 2.50476 2.5817 2.5817C2.50476 2.65864 2.46154 2.76299 2.46154 2.87179C2.46154 2.9806 2.50476 3.08495 2.5817 3.16189C2.65864 3.23883 2.76299 3.28205 2.87179 3.28205H8.61539C8.72419 3.28205 8.82854 3.23883 8.90548 3.16189C8.98242 3.08495 9.02564 2.9806 9.02564 2.87179Z" fill="#CECCD8"/>
</svg>
